<svg width="465" height="890" viewBox="0 0 465 890" fill="none" xmlns="http://www.w3.org/2000/svg">
<path fill-rule="evenodd" clip-rule="evenodd" d="M143.885 448.327C142.091 279.229 282.029 140.647 456.447 138.796L457.277 216.999C327.408 218.378 223.212 321.563 224.549 447.471C225.885 573.378 332.248 674.329 462.116 672.951L462.947 751.154C288.529 753.005 145.68 617.425 143.885 448.327Z" fill="#FAAF3A" fill-opacity="0.1"/>
<path fill-rule="evenodd" clip-rule="evenodd" d="M0.72272 449.846C-1.88561 204.093 201.49 2.69041 454.974 2.03524e-05L455.804 78.203C246.869 80.4206 79.2361 246.428 81.386 448.99C83.5359 651.553 254.654 813.964 463.59 811.747L464.42 889.95C210.935 892.64 3.33105 695.599 0.72272 449.846Z" fill="#FAAF3A" fill-opacity="0.1"/>
<path fill-rule="evenodd" clip-rule="evenodd" d="M280.541 446.876C279.523 350.949 358.908 272.333 457.853 271.283L458.683 349.486C404.287 350.064 360.644 393.283 361.204 446.02C361.764 498.757 406.314 541.041 460.71 540.464L461.54 618.666C362.595 619.717 281.559 542.804 280.541 446.876Z" fill="#FAAF3A" fill-opacity="0.1"/>
</svg>
