<svg  width="177" height="151" viewBox="0 0 175 171" fill="none" xmlns="http://www.w3.org/2000/svg">
<path d="M32.2765 145.355L19.9937 10.6875H155.006L142.707 145.334L87.4179 160.312L32.2765 145.355Z" fill="#1572B6"/>
<path d="M87.5 148.866L132.18 136.763L142.691 21.7009H87.5V148.866Z" fill="#33A9DC"/>
<path d="M87.5 70.4893H109.867L111.409 53.5764H87.5V37.0588H129.883L129.478 41.4888L125.327 87.0069H87.5V70.4893V70.4893Z" fill="white"/>
<path d="M87.6039 113.384L87.5273 113.405L68.7039 108.435L67.5008 95.2629H50.5312L52.8992 121.196L87.5219 130.59L87.6039 130.569V113.384V113.384Z" fill="#EBEBEB"/>
<path d="M108.429 86.3069L106.394 108.425L87.5437 113.394V130.58L122.194 121.196L122.451 118.407L125.387 86.3069H108.429V86.3069Z" fill="white"/>
<path d="M87.5601 37.0588V53.5764H46.7304L46.3914 49.8625L45.6203 41.4888L45.2156 37.0588H87.5601V37.0588ZM87.5 70.4893V87.0069H68.9117L68.5726 83.293L67.807 74.9193L67.4023 70.4893H87.5V70.4893Z" fill="#EBEBEB"/>
</svg>
