<svg width="177" height="151"  viewBox="0 0 128 158" fill="none" xmlns="http://www.w3.org/2000/svg">
<path d="M0 127.39L1.0615 126.052L51.2635 40.2933L51.3695 39.3854L29.24 1.9619C27.385 -1.17289 22.165 -0.380193 21.557 3.12912L0 127.39Z" fill="#FFC24A"/>
<path d="M67.5025 67.6924L83.98 52.5001L67.4975 24.1726C65.933 21.4911 61.5645 21.483 60.0165 24.1726L51.21 39.2915V40.579L67.502 67.6924H67.5025Z" fill="#F4BD62"/>
<path d="M0 127.389L0.481 126.954L2.229 126.315L66.4675 68.6963L67.2815 66.7017L51.2565 39.2097L0 127.389Z" fill="#F6820C"/>
<path d="M69.5605 156.447L127.698 127.257L111.096 35.2051C110.577 32.3251 106.652 31.1867 104.362 33.2515L0 127.389L57.804 156.445C59.6007 157.348 61.6242 157.823 63.6819 157.823C65.7397 157.823 67.7634 157.35 69.5605 156.447" fill="#FDE068"/>
<path d="M127.177 127.012L110.701 35.6595C110.186 32.8011 106.922 31.6185 104.65 33.668L0.64502 127.21L57.8145 155.978C59.5975 156.874 61.6055 157.345 63.6476 157.346C65.6897 157.346 67.698 156.876 69.4815 155.981L127.178 127.012L127.177 127.012Z" fill="#FCCA3F"/>
<path d="M69.5602 155.587C67.7632 156.49 65.7396 156.963 63.6819 156.963C61.6242 156.962 59.6009 156.488 57.8042 155.585L0.465732 126.947L0.000732422 127.389L57.8042 156.445C59.6009 157.348 61.6244 157.823 63.6822 157.823C65.7399 157.823 67.7636 157.35 69.5607 156.448L127.698 127.257L127.556 126.469L69.5607 155.588L69.5602 155.587Z" fill="#EEAB37"/>
</svg>
