<svg width="695" height="674" viewBox="0 0 695 674" fill="none" xmlns="http://www.w3.org/2000/svg">
<path d="M596.31 334.978C596.31 467.122 485.847 574.248 349.585 574.248C213.322 574.248 102.86 467.122 102.86 334.978C102.86 202.832 213.322 95.708 349.585 95.708C485.847 95.708 596.31 202.832 596.31 334.978Z" fill="#F6EA9E"/>
<g opacity="0.47706">
<path d="M619.309 519.716H479.639C478.958 519.716 478.406 519.181 478.406 518.521V464.761H620.542V518.521C620.542 519.181 619.991 519.716 619.309 519.716Z" fill="#E6E6E6"/>
<path d="M620.541 464.761H478.405V456.542C478.405 455.697 479.111 455.012 479.983 455.012H618.962C619.834 455.012 620.541 455.697 620.541 456.542V464.761Z" fill="#23305E"/>
<path d="M484.954 460C484.954 460.751 484.325 461.36 483.551 461.36C482.777 461.36 482.146 460.751 482.146 460C482.146 459.248 482.777 458.64 483.551 458.64C484.325 458.64 484.954 459.248 484.954 460Z" fill="#FF1D24"/>
<path d="M489.628 460C489.628 460.751 489 461.36 488.226 461.36C487.451 461.36 486.823 460.751 486.823 460C486.823 459.248 487.451 458.64 488.226 458.64C489 458.64 489.628 459.248 489.628 460Z" fill="#FAAF3A"/>
<path d="M494.304 460C494.304 460.751 493.676 461.36 492.902 461.36C492.127 461.36 491.499 460.751 491.499 460C491.499 459.248 492.127 458.64 492.902 458.64C493.676 458.64 494.304 459.248 494.304 460Z" fill="#8BC53E"/>
<path d="M618.965 455.925C619.3 455.925 619.518 456.029 619.601 456.091V461.336V518.638C619.518 518.7 619.3 518.802 618.965 518.802H479.986C479.649 518.802 479.43 518.7 479.348 518.638V461.336V456.091C479.43 456.029 479.649 455.925 479.986 455.925H618.965ZM618.965 455.012H479.986C479.114 455.012 478.406 455.457 478.406 456.004V461.336V518.724C478.406 519.273 479.114 519.716 479.986 519.716H618.965C619.835 519.716 620.542 519.273 620.542 518.724V461.336V456.004C620.542 455.457 619.835 455.012 618.965 455.012Z" fill="#23305E"/>
<path d="M522.869 493.355L533.487 501.05C534.019 501.44 534.374 501.786 534.549 502.094C534.725 502.4 534.813 502.792 534.813 503.265C534.813 503.864 534.647 504.384 534.318 504.822C533.987 505.263 533.604 505.481 533.166 505.481C532.878 505.481 532.447 505.272 531.872 504.854L516.056 493.355L531.872 481.856C532.447 481.452 532.872 481.25 533.15 481.25C533.598 481.25 533.987 481.467 534.318 481.898C534.647 482.329 534.813 482.846 534.813 483.444C534.813 483.919 534.725 484.311 534.549 484.617C534.374 484.924 534.019 485.272 533.487 485.662L522.869 493.355Z" fill="#133853"/>
<path d="M552.708 479.015L542.201 508.618C541.934 509.357 541.696 509.837 541.482 510.059C541.206 510.353 540.868 510.499 540.473 510.499C540.025 510.499 539.639 510.29 539.314 509.873C538.988 509.454 538.829 508.979 538.829 508.451C538.829 508.075 538.955 507.522 539.212 506.798L549.75 477.216C550.015 476.478 550.249 475.996 550.452 475.774C550.74 475.482 551.076 475.335 551.461 475.335C551.909 475.335 552.292 475.541 552.612 475.952C552.932 476.363 553.09 476.834 553.09 477.362C553.09 477.739 552.964 478.289 552.708 479.015Z" fill="#133853"/>
<path d="M569.064 493.355L558.446 485.662C557.913 485.272 557.559 484.924 557.384 484.617C557.207 484.311 557.12 483.919 557.12 483.444C557.12 482.846 557.284 482.329 557.614 481.898C557.945 481.467 558.334 481.25 558.782 481.25C559.06 481.25 559.485 481.452 560.061 481.856L575.876 493.355L560.061 504.854C559.485 505.272 559.06 505.481 558.782 505.481C558.334 505.481 557.945 505.264 557.614 504.833C557.284 504.402 557.12 503.879 557.12 503.265C557.12 502.792 557.207 502.4 557.384 502.094C557.559 501.786 557.913 501.44 558.446 501.05L569.064 493.355Z" fill="#133853"/>
</g>
<path d="M404.49 207.592H347.5V152.324H404.49V207.592Z" fill="#EABC00"/>
<path d="M355.84 207.592V265.556L396.15 246.684L357.23 227.812L396.15 207.592" stroke="#EABC00" stroke-width="4" stroke-linecap="round" stroke-linejoin="bevel"/>
<path d="M396.15 207.592V265.556" stroke="#EABC00" stroke-width="4" stroke-miterlimit="10"/>
<path d="M107.03 199.504H364.18L344.72 160.412L325.26 198.156L304.41 160.412" stroke="#EABC00" stroke-width="4" stroke-linecap="round" stroke-linejoin="bevel"/>
<path d="M102.86 160.412H364.18V199.504" stroke="#EABC00" stroke-width="4" stroke-miterlimit="10"/>
<path d="M303.02 160.412L283.56 199.504L264.1 160.412L244.64 199.504L225.18 160.412L205.72 199.504L186.26 160.412L162.63 199.504L143.17 160.412L123.71 199.504L104.25 160.412V199.504" stroke="#EABC00" stroke-width="4" stroke-linecap="round" stroke-linejoin="bevel"/>
<path d="M123.708 476.749V268.097C123.708 266.694 124.882 265.556 126.329 265.556H416.287C417.734 265.556 418.906 266.694 418.906 268.097V476.749C418.906 478.152 417.734 479.29 416.287 479.29H126.329C124.882 479.29 123.708 478.152 123.708 476.749Z" fill="#F66C6C"/>
<path d="M403.582 447.734H139.035C137.61 447.734 136.456 446.615 136.456 445.235V284.323C136.456 282.941 137.61 281.822 139.035 281.822H403.582C405.006 281.822 406.161 282.941 406.161 284.323V445.235C406.161 446.615 405.006 447.734 403.582 447.734Z" fill="white"/>
<path d="M279.024 465.951C279.024 470.083 275.569 473.434 271.307 473.434C267.047 473.434 263.593 470.083 263.593 465.951C263.593 461.819 267.047 458.468 271.307 458.468C275.569 458.468 279.024 461.819 279.024 465.951Z" fill="white"/>
<path d="M294.791 502.386H247.826V478.963H294.791V502.386Z" fill="#F66C6C"/>
<path d="M316.171 509.544H226.445C225.655 509.544 225.016 508.923 225.016 508.158V503.775C225.016 503.008 225.655 502.386 226.445 502.386H316.171C316.96 502.386 317.601 503.008 317.601 503.775V508.158C317.601 508.923 316.96 509.544 316.171 509.544Z" fill="#F66C6C"/>
<path d="M389.346 380.808L388.826 383.493C386.863 383.659 384.936 384.069 383.075 384.722L381.51 382.493C381.293 382.185 380.96 381.976 380.584 381.91C380.207 381.844 379.816 381.927 379.499 382.143L372.031 387.191C371.372 387.636 371.201 388.516 371.65 389.157L373.214 391.381C371.93 392.855 370.851 394.473 369.994 396.211L367.265 395.734C366.482 395.596 365.724 396.108 365.576 396.875L363.892 405.567C363.744 406.334 364.26 407.069 365.044 407.206L367.774 407.684C367.922 409.599 368.324 411.476 368.972 413.288L366.677 414.838C366.018 415.283 365.847 416.163 366.296 416.804L371.384 424.051C371.599 424.358 371.933 424.568 372.31 424.634C372.687 424.7 373.076 424.617 373.394 424.403L375.691 422.851C377.186 424.09 378.831 425.127 380.605 425.946L380.086 428.626C379.937 429.394 380.452 430.128 381.237 430.265L390.119 431.824C390.494 431.891 390.886 431.808 391.201 431.594C391.519 431.379 391.737 431.053 391.808 430.684L392.328 427.998C394.292 427.834 396.218 427.422 398.079 426.771L399.654 429.011C400.103 429.65 401.002 429.809 401.663 429.363L409.134 424.319C409.452 424.106 409.671 423.778 409.742 423.409C409.814 423.04 409.732 422.66 409.516 422.352L407.941 420.11C409.226 418.637 410.304 417.019 411.16 415.28L413.914 415.762C414.698 415.9 415.456 415.388 415.604 414.621L417.288 405.929C417.436 405.162 416.92 404.427 416.136 404.29L413.382 403.808C413.233 401.893 412.832 400.016 412.184 398.204L414.495 396.643C414.812 396.428 415.03 396.102 415.102 395.732C415.173 395.363 415.092 394.982 414.875 394.676L409.783 387.432C409.332 386.793 408.433 386.636 407.774 387.08L405.462 388.642C403.968 387.401 402.323 386.364 400.549 385.546L401.07 382.86C401.218 382.093 400.703 381.359 399.918 381.221L391.036 379.666C390.251 379.529 389.494 380.041 389.346 380.808ZM402.329 407.803C401.102 414.136 394.839 418.367 388.366 417.234C381.892 416.101 377.625 410.026 378.851 403.693C380.078 397.36 386.341 393.129 392.814 394.262C399.288 395.395 403.555 401.47 402.329 407.803Z" fill="#F66C6C"/>
<path d="M286.508 454.666L290.856 453.075C292.806 455.688 295.08 458.039 297.649 460.088L295.781 464.211C295.524 464.783 295.51 465.431 295.743 466.017C295.976 466.603 296.436 467.08 297.026 467.339L310.854 473.463C312.073 474.003 313.498 473.482 314.035 472.299L315.897 468.18C319.154 468.71 322.439 468.827 325.707 468.528L327.392 472.772C327.876 473.991 329.278 474.613 330.52 474.159L344.59 469.011C345.831 468.557 346.446 467.197 345.962 465.978L344.276 461.732C346.923 459.869 349.293 457.683 351.356 455.207L355.604 457.09C356.824 457.631 358.248 457.109 358.786 455.926L364.858 442.519C365.117 441.951 365.13 441.302 364.897 440.715C364.665 440.129 364.205 439.655 363.617 439.392L359.366 437.508C359.86 434.338 359.929 431.132 359.571 427.934L363.909 426.347C365.153 425.892 365.767 424.535 365.282 423.314L359.802 409.495C359.572 408.91 359.111 408.432 358.524 408.174C357.937 407.913 357.274 407.89 356.677 408.108L352.329 409.699C350.38 407.083 348.105 404.735 345.538 402.685L347.413 398.537C347.948 397.355 347.395 395.955 346.173 395.413L332.348 389.28C331.762 389.017 331.097 388.994 330.5 389.212C329.903 389.431 329.422 389.873 329.164 390.443L327.287 394.592C324.03 394.062 320.745 393.945 317.478 394.246L315.777 389.961C315.293 388.742 313.891 388.121 312.649 388.575L298.579 393.722C297.338 394.177 296.723 395.536 297.207 396.756L298.908 401.04C296.261 402.903 293.891 405.089 291.828 407.565L287.55 405.668C286.963 405.408 286.299 405.384 285.7 405.603C285.103 405.822 284.622 406.264 284.367 406.835L278.303 420.244C277.768 421.429 278.324 422.828 279.543 423.369L283.821 425.265C283.325 428.436 283.256 431.642 283.614 434.839L279.267 436.43C278.026 436.884 277.41 438.242 277.895 439.463L283.381 453.279C283.866 454.5 285.267 455.12 286.508 454.666ZM314.334 413.108C324.585 409.357 336.178 414.495 340.176 424.565C344.174 434.634 339.085 445.875 328.835 449.626C318.584 453.376 306.991 448.238 302.993 438.169C298.995 428.099 304.083 416.858 314.334 413.108Z" fill="#F66C6C"/>
<path d="M619.579 443.877H479.911C479.229 443.877 478.678 443.342 478.678 442.681V388.919H620.812V442.681C620.812 443.342 620.26 443.877 619.579 443.877Z" fill="#E6E6E6"/>
<path d="M620.812 388.919H478.678V380.7C478.678 379.855 479.385 379.173 480.256 379.173H619.234C620.105 379.173 620.812 379.855 620.812 380.7V388.919Z" fill="#23305E"/>
<path d="M485.224 384.161C485.224 384.911 484.594 385.521 483.819 385.521C483.046 385.521 482.416 384.911 482.416 384.161C482.416 383.408 483.046 382.798 483.819 382.798C484.594 382.798 485.224 383.408 485.224 384.161Z" fill="#FF1D24"/>
<path d="M489.899 384.161C489.899 384.911 489.272 385.521 488.496 385.521C487.722 385.521 487.094 384.911 487.094 384.161C487.094 383.408 487.722 382.798 488.496 382.798C489.272 382.798 489.899 383.408 489.899 384.161Z" fill="#FAAF3A"/>
<path d="M494.576 384.161C494.576 384.911 493.946 385.521 493.171 385.521C492.398 385.521 491.768 384.911 491.768 384.161C491.768 383.408 492.398 382.798 493.171 382.798C493.946 382.798 494.576 383.408 494.576 384.161Z" fill="#8BC53E"/>
<path d="M619.234 380.086C619.57 380.086 619.787 380.188 619.87 380.25V385.495V442.797C619.787 442.859 619.57 442.962 619.234 442.962H480.256C479.918 442.962 479.702 442.859 479.619 442.797V385.495V380.25C479.702 380.188 479.918 380.086 480.256 380.086H619.234ZM619.234 379.172H480.256C479.385 379.172 478.678 379.615 478.678 380.164V385.495V442.884C478.678 443.432 479.385 443.876 480.256 443.876H619.234C620.105 443.876 620.812 443.432 620.812 442.884V385.495V380.164C620.812 379.615 620.105 379.172 619.234 379.172Z" fill="#23305E"/>
<path d="M520.64 416.058H512.347V421.512H512.953C513.887 421.512 514.553 421.686 514.951 422.035C515.348 422.383 515.547 422.842 515.547 423.404C515.547 423.955 515.348 424.402 514.951 424.752C514.553 425.101 513.887 425.277 512.953 425.277H508.202C507.267 425.277 506.601 425.101 506.203 424.752C505.806 424.402 505.608 423.95 505.608 423.386C505.608 422.701 505.916 422.166 506.536 421.787C506.837 421.591 507.481 421.5 508.466 421.512V406.788C507.785 406.726 507.271 406.525 506.923 406.182C506.576 405.839 506.402 405.411 506.402 404.897C506.402 404.333 506.601 403.878 507 403.529C507.397 403.18 508.062 403.003 508.996 403.003L512.953 403.023C513.887 403.023 514.553 403.196 514.951 403.538C515.348 403.881 515.547 404.333 515.547 404.897C515.547 405.46 515.348 405.915 514.951 406.262C514.553 406.612 513.887 406.788 512.953 406.788H512.347V412.296H520.64V406.788H520.034C519.101 406.788 518.434 406.612 518.036 406.262C517.639 405.915 517.44 405.46 517.44 404.897C517.44 404.333 517.639 403.878 518.036 403.529C518.434 403.18 519.101 403.003 520.034 403.003L523.991 403.023C524.925 403.023 525.592 403.196 525.989 403.538C526.386 403.881 526.585 404.333 526.585 404.897C526.585 405.411 526.411 405.839 526.064 406.182C525.716 406.525 525.203 406.726 524.522 406.788V421.512C525.519 421.512 526.162 421.603 526.453 421.787C527.071 422.166 527.381 422.707 527.381 423.404C527.381 423.955 527.181 424.402 526.784 424.752C526.386 425.101 525.72 425.277 524.786 425.277H520.034C519.101 425.277 518.434 425.101 518.036 424.752C517.639 424.402 517.44 423.95 517.44 423.386C517.44 422.835 517.643 422.383 518.046 422.035C518.451 421.686 519.112 421.512 520.034 421.512H520.64V416.058Z" fill="black"/>
<path d="M541.544 406.787V421.514H544.157C545.091 421.514 545.756 421.688 546.153 422.037C546.552 422.385 546.75 422.842 546.75 423.404C546.75 423.955 546.552 424.404 546.153 424.753C545.756 425.102 545.091 425.277 544.157 425.277H535.069C534.134 425.277 533.468 425.102 533.071 424.753C532.673 424.404 532.476 423.948 532.476 423.386C532.476 422.835 532.673 422.385 533.071 422.037C533.468 421.688 534.134 421.514 535.069 421.514H537.662V406.787H533.46V410.35C533.46 411.255 533.28 411.9 532.92 412.285C532.56 412.671 532.089 412.864 531.508 412.864C530.941 412.864 530.477 412.671 530.117 412.285C529.758 411.9 529.579 411.255 529.579 410.35V403.003L549.684 403.022V410.35C549.684 411.255 549.506 411.9 549.146 412.285C548.786 412.671 548.315 412.864 547.735 412.864C547.167 412.864 546.704 412.671 546.344 412.285C545.982 411.9 545.803 411.255 545.803 410.35V406.787H541.544Z" fill="black"/>
<path d="M556.862 410.294V421.512H558.263C559.197 421.512 559.86 421.686 560.258 422.035C560.655 422.385 560.857 422.842 560.857 423.404C560.857 423.955 560.655 424.404 560.258 424.753C559.86 425.101 559.197 425.276 558.263 425.276H553.17C552.236 425.276 551.567 425.101 551.17 424.753C550.772 424.404 550.576 423.948 550.576 423.385C550.576 422.835 550.769 422.385 551.16 422.035C551.552 421.686 552.158 421.512 552.978 421.512V406.787C552.297 406.726 551.784 406.524 551.438 406.18C551.09 405.838 550.917 405.409 550.917 404.896C550.917 404.332 551.113 403.877 551.51 403.527C551.908 403.18 552.576 403.004 553.51 403.004L557.768 403.022L563.051 414.352L568.239 403.004L572.535 403.022C573.469 403.022 574.138 403.194 574.536 403.537C574.933 403.879 575.131 404.332 575.131 404.896C575.131 405.409 574.954 405.838 574.601 406.18C574.246 406.524 573.738 406.726 573.068 406.787V421.512C573.888 421.512 574.494 421.69 574.884 422.045C575.275 422.399 575.471 422.852 575.471 423.404C575.471 423.955 575.274 424.404 574.876 424.753C574.479 425.101 573.811 425.276 572.877 425.276H567.766C566.845 425.276 566.186 425.101 565.788 424.753C565.391 424.404 565.191 423.948 565.191 423.385C565.191 422.835 565.391 422.385 565.788 422.035C566.186 421.686 566.845 421.512 567.766 421.512H569.185V410.294L564.736 419.988H561.367L556.862 410.294Z" fill="black"/>
<path d="M584.578 406.787V421.514H592.948V417.951C592.948 417.045 593.127 416.399 593.487 416.014C593.847 415.628 594.317 415.436 594.898 415.436C595.465 415.436 595.929 415.628 596.289 416.014C596.649 416.399 596.828 417.045 596.828 417.951V425.277H578.444C577.51 425.277 576.846 425.102 576.447 424.753C576.049 424.404 575.851 423.948 575.851 423.386C575.851 422.835 576.049 422.385 576.447 422.037C576.846 421.688 577.51 421.514 578.444 421.514H580.698V406.787H578.444C577.51 406.787 576.846 406.612 576.447 406.262C576.049 405.915 575.851 405.459 575.851 404.896C575.851 404.332 576.049 403.877 576.447 403.527C576.846 403.178 577.51 403.003 578.444 403.003L586.851 403.022C587.785 403.022 588.451 403.194 588.848 403.537C589.246 403.879 589.445 404.332 589.445 404.896C589.445 405.459 589.246 405.915 588.848 406.262C588.451 406.612 587.785 406.787 586.851 406.787H584.578Z" fill="black"/>
<path d="M619.331 366.781H479.664C478.982 366.781 478.431 366.246 478.431 365.586V311.823H620.564V365.586C620.564 366.246 620.012 366.781 619.331 366.781Z" fill="#E6E6E6"/>
<path d="M620.564 311.823H478.431V303.605C478.431 302.759 479.137 302.077 480.009 302.077H618.987C619.858 302.077 620.564 302.759 620.564 303.605V311.823Z" fill="#23305E"/>
<path d="M484.977 307.065C484.977 307.816 484.347 308.425 483.571 308.425C482.799 308.425 482.169 307.816 482.169 307.065C482.169 306.313 482.799 305.702 483.571 305.702C484.347 305.702 484.977 306.313 484.977 307.065Z" fill="#FF1D24"/>
<path d="M489.651 307.065C489.651 307.816 489.024 308.425 488.249 308.425C487.474 308.425 486.846 307.816 486.846 307.065C486.846 306.313 487.474 305.702 488.249 305.702C489.024 305.702 489.651 306.313 489.651 307.065Z" fill="#FAAF3A"/>
<path d="M494.329 307.065C494.329 307.816 493.699 308.425 492.923 308.425C492.15 308.425 491.521 307.816 491.521 307.065C491.521 306.313 492.15 305.702 492.923 305.702C493.699 305.702 494.329 306.313 494.329 307.065Z" fill="#8BC53E"/>
<path d="M618.987 302.99C619.323 302.99 619.54 303.092 619.623 303.154V308.399V365.702C619.54 365.764 619.323 365.866 618.987 365.866H480.009C479.671 365.866 479.454 365.764 479.372 365.702V308.399V303.154C479.454 303.092 479.671 302.99 480.009 302.99H618.987ZM618.987 302.076H480.009C479.137 302.076 478.431 302.52 478.431 303.068V308.399V365.788C478.431 366.337 479.137 366.78 480.009 366.78H618.987C619.858 366.78 620.564 366.337 620.564 365.788V308.399V303.068C620.564 302.52 619.858 302.076 618.987 302.076Z" fill="#23305E"/>
<path d="M536.13 326.882C536.371 326.564 536.632 326.325 536.915 326.166C537.2 326.007 537.506 325.926 537.834 325.926C538.403 325.926 538.867 326.118 539.227 326.496C539.586 326.875 539.765 327.518 539.765 328.424V331.619C539.765 332.525 539.586 333.17 539.227 333.556C538.867 333.94 538.403 334.134 537.834 334.134C537.317 334.134 536.9 333.993 536.585 333.711C536.269 333.429 536.036 332.903 535.884 332.134C535.797 331.619 535.62 331.221 535.353 330.939C534.836 330.389 534.115 329.947 533.186 329.617C532.259 329.287 531.328 329.121 530.394 329.121C529.232 329.121 528.167 329.366 527.194 329.856C526.222 330.345 525.363 331.14 524.62 332.243C523.874 333.344 523.502 334.656 523.502 336.174V338.615C523.502 340.427 524.18 341.939 525.537 343.15C526.894 344.363 528.778 344.968 531.189 344.968C532.627 344.968 533.845 344.778 534.843 344.399C535.423 344.178 536.043 343.744 536.699 343.094C537.102 342.703 537.419 342.45 537.645 342.334C537.872 342.217 538.13 342.159 538.421 342.159C538.939 342.159 539.394 342.349 539.784 342.729C540.175 343.108 540.371 343.554 540.371 344.069C540.371 344.583 540.106 345.134 539.576 345.722C538.806 346.578 537.816 347.25 536.604 347.741C534.975 348.401 533.176 348.732 531.208 348.732C528.91 348.732 526.839 348.273 524.998 347.355C523.509 346.621 522.24 345.461 521.192 343.875C520.144 342.291 519.621 340.561 519.621 338.689V336.136C519.621 334.179 520.091 332.351 521.032 330.655C521.97 328.959 523.275 327.652 524.941 326.735C526.606 325.817 528.374 325.357 530.242 325.357C531.365 325.357 532.416 325.483 533.395 325.733C534.372 325.984 535.285 326.367 536.13 326.882Z" fill="black"/>
<path d="M547.642 347.226C547.3 347.617 547.025 347.87 546.816 347.981C546.608 348.09 546.352 348.145 546.049 348.145C545.457 348.145 544.982 347.953 544.622 347.567C544.262 347.181 544.081 346.54 544.081 345.646V343.113C544.081 342.207 544.262 341.563 544.622 341.177C544.982 340.792 545.457 340.599 546.049 340.599C546.505 340.599 546.887 340.715 547.197 340.948C547.506 341.18 547.741 341.57 547.905 342.113C548.07 342.658 548.24 343.028 548.416 343.224C548.782 343.604 549.434 343.989 550.368 344.382C551.302 344.774 552.324 344.968 553.436 344.968C555.163 344.968 556.585 344.577 557.694 343.793C558.401 343.317 558.755 342.729 558.755 342.031C558.755 341.566 558.583 341.129 558.242 340.718C557.902 340.308 557.347 339.968 556.578 339.699C556.072 339.515 554.944 339.265 553.188 338.945C551.068 338.566 549.464 338.107 548.379 337.569C547.293 337.031 546.435 336.271 545.806 335.291C545.175 334.312 544.856 333.253 544.856 332.115C544.856 330.315 545.633 328.739 547.186 327.386C548.739 326.034 550.757 325.357 553.244 325.357C554.242 325.357 555.166 325.464 556.017 325.68C556.87 325.894 557.643 326.22 558.337 326.661C558.843 326.185 559.347 325.945 559.852 325.945C560.419 325.945 560.883 326.138 561.243 326.525C561.603 326.909 561.785 327.548 561.785 328.442V331.27C561.785 332.176 561.603 332.823 561.243 333.209C560.883 333.594 560.419 333.785 559.852 333.785C559.371 333.785 558.958 333.645 558.604 333.363C558.327 333.156 558.116 332.739 557.978 332.115C557.839 331.489 557.664 331.043 557.45 330.774C557.083 330.309 556.532 329.918 555.801 329.599C555.07 329.28 554.222 329.121 553.263 329.121C551.862 329.121 550.756 329.438 549.941 330.067C549.127 330.698 548.719 331.356 548.719 332.041C548.719 332.506 548.887 332.956 549.222 333.39C549.556 333.825 550.045 334.165 550.689 334.409C551.118 334.58 552.328 334.857 554.315 335.235C556.303 335.616 557.831 336.031 558.898 336.484C559.963 336.937 560.85 337.65 561.557 338.615C562.265 339.583 562.615 340.734 562.615 342.067C562.615 343.929 561.941 345.416 560.59 346.529C558.797 347.998 556.514 348.732 553.739 348.732C552.664 348.732 551.619 348.606 550.603 348.357C549.587 348.105 548.6 347.727 547.642 347.226Z" fill="black"/>
<path d="M570.912 347.226C570.57 347.617 570.295 347.87 570.086 347.981C569.878 348.09 569.622 348.145 569.319 348.145C568.727 348.145 568.252 347.953 567.892 347.567C567.532 347.181 567.351 346.54 567.351 345.646V343.113C567.351 342.207 567.532 341.563 567.892 341.177C568.252 340.792 568.727 340.599 569.319 340.599C569.775 340.599 570.157 340.715 570.467 340.948C570.776 341.18 571.011 341.57 571.175 342.113C571.34 342.658 571.51 343.028 571.686 343.224C572.052 343.604 572.704 343.989 573.638 344.382C574.572 344.774 575.594 344.968 576.706 344.968C578.433 344.968 579.855 344.577 580.964 343.793C581.671 343.317 582.025 342.729 582.025 342.031C582.025 341.566 581.853 341.129 581.512 340.718C581.172 340.308 580.617 339.968 579.848 339.699C579.342 339.515 578.214 339.265 576.458 338.945C574.338 338.566 572.734 338.107 571.649 337.569C570.563 337.031 569.705 336.271 569.076 335.291C568.445 334.312 568.126 333.253 568.126 332.115C568.126 330.315 568.903 328.739 570.456 327.386C572.009 326.034 574.027 325.357 576.514 325.357C577.512 325.357 578.436 325.464 579.287 325.68C580.14 325.894 580.913 326.22 581.607 326.661C582.113 326.185 582.617 325.945 583.122 325.945C583.689 325.945 584.153 326.138 584.513 326.525C584.873 326.909 585.055 327.548 585.055 328.442V331.27C585.055 332.176 584.873 332.823 584.513 333.209C584.153 333.594 583.689 333.785 583.122 333.785C582.641 333.785 582.228 333.645 581.874 333.363C581.597 333.156 581.386 332.739 581.248 332.115C581.109 331.489 580.934 331.043 580.72 330.774C580.353 330.309 579.802 329.918 579.071 329.599C578.34 329.28 577.492 329.121 576.533 329.121C575.132 329.121 574.026 329.438 573.211 330.067C572.397 330.698 571.989 331.356 571.989 332.041C571.989 332.506 572.157 332.956 572.492 333.39C572.826 333.825 573.315 334.165 573.959 334.409C574.388 334.58 575.598 334.857 577.585 335.235C579.573 335.616 581.101 336.031 582.168 336.484C583.233 336.937 584.12 337.65 584.827 338.615C585.535 339.583 585.885 340.734 585.885 342.067C585.885 343.929 585.211 345.416 583.86 346.529C582.067 347.998 579.784 348.732 577.009 348.732C575.934 348.732 574.889 348.606 573.873 348.357C572.857 348.105 571.87 347.727 570.912 347.226Z" fill="black"/>
<path d="M304.05 356.41H164.38C163.699 356.41 163.147 355.875 163.147 355.214V301.454H305.283V355.214C305.283 355.875 304.731 356.41 304.05 356.41Z" fill="#E6E6E6"/>
<path d="M305.282 301.454H163.146V293.236C163.146 292.39 163.852 291.706 164.723 291.706H303.703C304.574 291.706 305.282 292.39 305.282 293.236V301.454Z" fill="#23305E"/>
<path d="M169.694 296.693C169.694 297.444 169.066 298.053 168.292 298.053C167.517 298.053 166.886 297.444 166.886 296.693C166.886 295.941 167.517 295.333 168.292 295.333C169.066 295.333 169.694 295.941 169.694 296.693Z" fill="#FF1D24"/>
<path d="M174.368 296.693C174.368 297.444 173.74 298.053 172.966 298.053C172.192 298.053 171.563 297.444 171.563 296.693C171.563 295.941 172.192 295.333 172.966 295.333C173.74 295.333 174.368 295.941 174.368 296.693Z" fill="#FAAF3A"/>
<path d="M179.045 296.693C179.045 297.444 178.416 298.053 177.642 298.053C176.868 298.053 176.24 297.444 176.24 296.693C176.24 295.941 176.868 295.333 177.642 295.333C178.416 295.333 179.045 295.941 179.045 296.693Z" fill="#8BC53E"/>
<path d="M303.705 292.618C304.04 292.618 304.258 292.722 304.342 292.784V298.029V355.331C304.258 355.393 304.04 355.496 303.705 355.496H164.726C164.39 355.496 164.17 355.393 164.088 355.331V298.029V292.784C164.17 292.722 164.39 292.618 164.726 292.618H303.705ZM303.705 291.706H164.726C163.854 291.706 163.147 292.151 163.147 292.698V298.029V355.418C163.147 355.966 163.854 356.41 164.726 356.41H303.705C304.575 356.41 305.283 355.966 305.283 355.418V298.029V292.698C305.283 292.151 304.575 291.706 303.705 291.706Z" fill="#23305E"/>
<path d="M207.609 330.048L218.227 337.744C218.76 338.134 219.114 338.48 219.289 338.787C219.466 339.093 219.553 339.486 219.553 339.959C219.553 340.557 219.388 341.078 219.058 341.516C218.728 341.956 218.344 342.175 217.906 342.175C217.618 342.175 217.188 341.966 216.612 341.548L200.797 330.048L216.612 318.55C217.188 318.145 217.613 317.943 217.891 317.943C218.338 317.943 218.728 318.16 219.058 318.592C219.388 319.023 219.553 319.539 219.553 320.138C219.553 320.612 219.466 321.004 219.289 321.31C219.114 321.618 218.76 321.966 218.227 322.355L207.609 330.048Z" fill="#133853"/>
<path d="M237.448 315.708L226.941 345.312C226.674 346.05 226.437 346.53 226.223 346.753C225.946 347.046 225.608 347.192 225.213 347.192C224.766 347.192 224.379 346.983 224.054 346.567C223.729 346.147 223.569 345.673 223.569 345.144C223.569 344.768 223.696 344.216 223.953 343.492L234.49 313.91C234.756 313.171 234.989 312.69 235.192 312.468C235.48 312.175 235.816 312.028 236.201 312.028C236.649 312.028 237.033 312.234 237.352 312.646C237.672 313.057 237.83 313.527 237.83 314.056C237.83 314.433 237.704 314.983 237.448 315.708Z" fill="#133853"/>
<path d="M253.804 330.048L243.186 322.355C242.654 321.966 242.299 321.618 242.124 321.31C241.948 321.004 241.86 320.612 241.86 320.138C241.86 319.539 242.024 319.023 242.355 318.592C242.686 318.16 243.075 317.943 243.523 317.943C243.801 317.943 244.226 318.145 244.801 318.55L260.617 330.048L244.801 341.548C244.226 341.966 243.801 342.175 243.523 342.175C243.075 342.175 242.686 341.958 242.355 341.526C242.024 341.095 241.86 340.572 241.86 339.959C241.86 339.486 241.948 339.093 242.124 338.787C242.299 338.48 242.654 338.134 243.186 337.744L253.804 330.048Z" fill="#133853"/>
<path d="M236.685 200.509C236.685 200.509 236.685 253.274 236.685 289.443" stroke="#EABC00" stroke-width="5.5385" stroke-linecap="round" stroke-linejoin="bevel"/>
</svg>
