<svg width="177" height="151"  viewBox="0 0 192 173" fill="none" xmlns="http://www.w3.org/2000/svg">
<path d="M35.4119 147.055L21.9299 10.8125H170.07L156.57 147.034L95.9099 162.188L35.4119 147.055Z" fill="#E44F26"/>
<path d="M96 150.607L145.02 138.362L156.552 21.9548H96V150.607Z" fill="#F1662A"/>
<path d="M96 72.4817H71.46L69.768 55.3709H96V38.6602H49.5L49.944 43.1473L54.498 89.1924H96V72.4817V72.4817ZM96 115.878L95.916 115.899L75.264 110.877L73.944 97.5504H55.326L57.924 123.782L95.916 133.286L96 133.264V115.878Z" fill="#EBEBEB"/>
<path d="M95.9341 72.4817V89.1924H118.77L116.622 110.866L95.9341 115.894V133.28L133.956 123.782L134.232 120.96L138.588 76.9688L139.044 72.4817H95.9341V72.4817ZM95.9341 38.6602V55.3709H140.73L141.102 51.6189L141.948 43.1473L142.392 38.6602H95.9341V38.6602Z" fill="white"/>
</svg>
