<svg width="177" height="151"  viewBox="0 0 153 150" fill="none" xmlns="http://www.w3.org/2000/svg">
<path d="M0 0H153V150H0V0Z" fill="#F7DF1E"/>
<path d="M40.2294 125.351L51.9374 118.404C54.1966 122.33 56.2513 125.652 61.1802 125.652C65.9047 125.652 68.884 123.841 68.884 116.793V68.8646H83.2618V116.992C83.2618 131.592 74.5324 138.238 61.7964 138.238C50.2945 138.238 43.6181 132.398 40.2288 125.35L40.2294 125.351ZM91.0714 123.84L102.778 117.195C105.86 122.129 109.866 125.754 116.952 125.754C122.91 125.754 126.708 122.834 126.708 118.806C126.708 113.973 122.806 112.261 116.233 109.443L112.639 107.931C102.265 103.602 95.3847 98.165 95.3847 86.6865C95.3847 76.1138 103.601 68.0583 116.439 68.0583C125.579 68.0583 132.152 71.1802 136.876 79.3359L125.681 86.3847C123.216 82.0552 120.547 80.3437 116.438 80.3437C112.227 80.3437 109.557 82.9617 109.557 86.3847C109.557 90.6134 112.227 92.3261 118.389 94.9441L121.983 96.4541C134.205 101.59 141.086 106.825 141.086 118.605C141.086 131.293 130.919 138.24 117.259 138.24C103.908 138.24 95.2813 131.997 91.0708 123.841" fill="black"/>
</svg>
