<svg width="35" height="33" viewBox="0 0 35 33" fill="none" xmlns="http://www.w3.org/2000/svg">
<path d="M18.6885 16.7709L7.70437 18.4965C7.57809 18.5164 7.45958 18.5673 7.36076 18.644C7.26195 18.7208 7.18631 18.8207 7.14145 18.9338L3.35416 28.501C2.99249 29.381 3.96812 30.2198 4.86354 29.7963L31.1135 17.4213C31.295 17.3355 31.4475 17.2039 31.5541 17.0411C31.6607 16.8783 31.7172 16.6907 31.7172 16.4993C31.7172 16.308 31.6607 16.1204 31.5541 15.9576C31.4475 15.7948 31.295 15.6631 31.1135 15.5774L4.86354 3.2024C3.96812 2.78027 2.99249 3.61902 3.35416 4.49765L7.14291 14.0649C7.18777 14.178 7.26341 14.2779 7.36222 14.3547C7.46104 14.4314 7.57954 14.4823 7.70583 14.5021L18.69 16.2278C18.7585 16.2381 18.8209 16.2711 18.8659 16.3209C18.911 16.3706 18.9357 16.4339 18.9357 16.4993C18.9357 16.5648 18.911 16.628 18.8659 16.6778C18.8209 16.7276 18.7585 16.7606 18.69 16.7709H18.6885Z" fill="white"/>
</svg>
