<svg width="177" height="151" viewBox="0 0 151 151" fill="none" xmlns="http://www.w3.org/2000/svg">
<path d="M70.5553 0.0408451C70.2309 0.0703373 69.1975 0.17356 68.2673 0.24729C46.8206 2.1808 26.7311 13.7512 14.0076 31.535C6.92241 41.4231 2.39123 52.6396 0.67891 64.5202C0.0737305 68.6668 0 69.8919 0 75.5149C0 81.1379 0.0737305 82.363 0.67891 86.5096C4.78245 114.86 24.9598 138.681 52.3256 147.506C57.2266 149.086 62.3925 150.163 68.2673 150.812C70.5553 151.063 80.4447 151.063 82.7327 150.812C92.8733 149.69 101.464 147.182 109.936 142.857C111.235 142.193 111.486 142.016 111.309 141.868C111.191 141.78 105.656 134.357 99.0135 125.383L86.9394 109.075L71.8099 86.6871C63.4849 74.3783 56.6362 64.3132 56.5772 64.3132C56.5182 64.2984 56.4593 74.2461 56.4298 86.3916C56.3849 107.658 56.3708 108.514 56.1048 109.016C55.7214 109.739 55.4258 110.035 54.8059 110.359C54.3335 110.595 53.92 110.639 51.6915 110.639H49.1375L48.4592 110.212C48.0386 109.948 47.6968 109.576 47.47 109.134L47.1598 108.47L47.1893 78.8799L47.2335 49.2745L47.6912 48.6988C47.9272 48.3892 48.4291 47.991 48.7836 47.7987C49.3888 47.5038 49.6247 47.4743 52.1782 47.4743C55.1893 47.4743 55.6913 47.5923 56.4734 48.4481C56.6952 48.6841 64.8869 61.0224 74.6878 75.8841C84.4892 90.7452 97.8922 111.038 104.475 121L116.431 139.108L117.036 138.71C122.394 135.227 128.062 130.268 132.549 125.102C142.099 114.137 148.254 100.767 150.321 86.5102C150.926 82.363 151 81.1379 151 75.5155C151 69.8919 150.926 68.6674 150.321 64.5202C146.218 36.1694 126.04 12.3491 98.6744 3.52387C93.8471 1.95961 88.7107 0.881962 82.9539 0.232544C81.537 0.0850833 71.7804 -0.0771237 70.5553 0.0408451V0.0408451ZM101.464 45.703C102.172 46.0569 102.748 46.7364 102.954 47.4448C103.072 47.8282 103.102 56.0341 103.072 74.5263L103.029 101.062L98.3494 93.8891L93.6554 86.7166V67.4275C93.6554 54.9565 93.7144 47.9462 93.8029 47.607C94.0388 46.7807 94.5561 46.1312 95.2645 45.7472C95.8697 45.4376 96.0909 45.4081 98.4084 45.4081C100.593 45.4081 100.977 45.4376 101.464 45.703Z" fill="black"/>
</svg>
