<svg width="177" height="151" viewBox="0 0 191 194" fill="none" xmlns="http://www.w3.org/2000/svg">
<path d="M95.5 111.999C103.741 111.999 110.422 105.213 110.422 96.8423C110.422 88.4717 103.741 81.686 95.5 81.686C87.2589 81.686 80.5781 88.4717 80.5781 96.8423C80.5781 105.213 87.2589 111.999 95.5 111.999Z" fill="#00D8FF"/>
<path d="M95.5 131.593C77.5647 132.033 59.6743 129.578 42.4975 124.318C34.5628 121.763 27.1622 117.738 20.6698 112.447C18.1923 110.64 16.1292 108.309 14.6219 105.616C13.1146 102.922 12.1989 99.9293 11.9375 96.8425C11.9375 86.8212 22.7767 76.9999 40.9337 70.5737C58.5698 64.8795 76.9964 62.1197 95.5 62.4014C113.757 62.1423 131.936 64.8522 149.35 70.4282C156.992 72.9026 164.141 76.7327 170.467 81.7408C172.903 83.464 174.935 85.71 176.42 88.3198C177.905 90.9296 178.808 93.8392 179.062 96.8425C179.063 107.258 166.946 117.813 147.428 124.372C130.584 129.461 113.071 131.896 95.5 131.593V131.593ZM95.5 69.6522C77.7974 69.4118 60.1699 72.0354 43.2794 77.4243C26.5669 83.3473 19.0761 91.4468 19.0761 96.8243C19.0761 102.45 27.128 111.295 44.8074 117.437C61.2398 122.444 78.3495 124.774 95.5 124.342C112.31 124.647 129.068 122.337 145.19 117.491C163.544 111.314 171.9 102.456 171.9 96.8425C171.599 94.916 170.908 93.0738 169.87 91.4324C168.832 89.791 167.471 88.386 165.872 87.3062C160.212 82.8632 153.825 79.4688 147.004 77.2788C130.346 71.9666 112.958 69.3919 95.5 69.6522V69.6522Z" fill="#00D8FF"/>
<path d="M61.5976 172.436C58.8132 172.501 56.0616 171.814 53.6234 170.447C45.0761 165.439 42.1156 150.999 45.7028 131.811C49.658 113.448 56.5111 95.8559 65.9966 79.7157C74.8944 63.5234 86.2854 48.8813 99.7379 36.3446C105.666 30.8563 112.504 26.4782 119.936 23.4133C122.624 22.1337 125.557 21.4705 128.525 21.4705C131.494 21.4705 134.426 22.1337 137.114 23.4133C146.002 28.6149 148.944 44.5472 144.796 64.996C140.719 82.3624 134.044 98.9911 125.004 114.302C116.419 130.303 105.387 144.818 92.3188 157.304C86.1756 163.007 79.0463 167.506 71.2909 170.574C68.186 171.745 64.9088 172.374 61.5976 172.436V172.436ZM72.1802 83.3169C63.1322 98.7722 56.5639 115.592 52.7221 133.145C49.4214 150.817 52.5908 161.444 57.1986 164.148C61.9736 166.955 73.565 164.294 87.6393 151.805C100.114 139.843 110.644 125.95 118.838 110.641C127.498 96.0027 133.901 80.1046 137.825 63.4986C141.728 44.2501 138.356 32.4646 133.569 29.6637C131.775 28.9655 129.857 28.6529 127.938 28.7458C126.019 28.8387 124.14 29.335 122.419 30.2033C115.804 32.976 109.722 36.9122 104.453 41.8312C91.6006 53.8397 80.7196 67.8571 72.222 83.3532L72.1802 83.3169Z" fill="#00D8FF"/>
<path d="M129.385 172.514C121.297 172.514 111.025 167.543 100.329 158.201C86.6406 145.55 75.057 130.734 66.0264 114.327C56.6598 98.4087 49.861 81.0711 45.8878 62.9712C44.1647 55.008 43.8454 46.7976 44.9447 38.7212C45.1989 35.7251 46.0971 32.8222 47.576 30.2171C49.0548 27.612 51.0784 25.3681 53.5039 23.6437C62.3795 18.4239 77.4386 23.7892 92.8081 37.6481C105.585 49.9076 116.435 64.0849 124.98 79.6855C134.34 95.2318 141.211 112.19 145.333 129.925C147.13 138.181 147.408 146.703 146.151 155.061C145.852 158.143 144.9 161.123 143.361 163.796C141.822 166.47 139.732 168.774 137.234 170.55C134.835 171.9 132.126 172.578 129.385 172.514V172.514ZM72.204 110.677C80.8672 126.357 91.9325 140.537 104.984 152.684C118.408 164.415 129.056 166.937 133.634 164.203C138.409 161.384 141.931 149.877 138.302 131.259C134.326 114.326 127.737 98.1392 118.778 83.2987C110.624 68.3676 100.268 54.792 88.069 43.0437C73.6007 29.9972 61.8661 27.0812 57.0852 29.8942C55.595 31.1242 54.3722 32.6546 53.4938 34.3888C52.6154 36.1231 52.1006 38.0235 51.9819 39.9701C51.0329 47.1728 51.342 54.4892 52.8951 61.5829C56.7169 78.8922 63.2374 95.4699 72.21 110.689L72.204 110.677Z" fill="#00D8FF"/>
</svg>
