<svg width="177" height="151"  viewBox="0 0 194 132" fill="none" xmlns="http://www.w3.org/2000/svg">
<path d="M166.932 75.9784C160.183 76.0101 154.316 77.4848 149.405 79.6648C147.602 76.4267 145.8 73.5419 145.483 71.4258C145.129 68.9577 144.705 67.4507 145.129 64.5013C145.553 61.5519 147.461 57.352 147.426 57.0316C147.391 56.7113 147.001 55.2043 143.114 55.1726C139.228 55.1403 135.87 55.8457 135.482 56.7752C135.093 57.7047 134.351 59.8208 133.856 62.0002C133.185 65.2067 126.083 76.6508 122.019 82.6458C120.711 80.3063 119.581 78.2541 119.333 76.6192C118.98 74.1511 118.555 72.6441 118.98 69.6947C119.404 66.7453 121.312 62.5461 121.277 62.225C121.241 61.9046 120.852 60.3976 116.965 60.366C113.078 60.3337 109.721 61.0391 109.333 61.9686C108.944 62.8988 108.519 65.0781 107.707 67.1943C106.894 69.3104 97.4592 88.4174 94.9857 93.3536C93.9861 95.3516 92.9376 97.3291 91.8408 99.2847C91.8408 99.2847 91.8052 99.3809 91.6991 99.5411C91.3545 100.154 91.0013 100.763 90.6397 101.369V101.4C90.1092 102.266 89.5439 103.067 89.2612 103.067C89.049 103.067 88.6603 100.759 89.3317 97.6175C90.745 90.9817 94.1021 80.6589 94.0672 80.3063C94.0672 80.1138 94.703 78.3187 91.8764 77.3885C89.1195 76.459 88.1305 77.9976 87.8827 77.9976C87.6357 77.9976 87.4584 78.5428 87.4584 78.5428C87.4584 78.5428 90.5336 66.9378 81.5929 66.9378C76.0101 66.9378 68.3062 72.4839 64.4898 77.4848C60.1514 79.6266 55.8168 81.7746 51.4858 83.9287C49.4018 84.9868 47.2458 86.0448 45.2315 87.0383C45.0898 86.9104 44.9489 86.7495 44.8072 86.6216C33.9939 76.1386 13.9937 68.7329 14.8417 54.6598C15.16 49.5303 17.103 36.0656 53.253 19.7162C83.0062 6.41169 106.683 10.0981 110.782 18.2731C116.647 29.9428 98.0958 51.6141 67.3521 54.7553C55.6204 55.9419 49.4715 51.8383 47.9172 50.2996C46.2917 48.6964 46.0439 48.6001 45.443 48.9212C44.454 49.4024 45.0898 50.8448 45.443 51.6781C46.3622 53.8574 50.1429 57.7047 56.5389 59.5967C62.1929 61.2632 75.9389 62.1934 92.5827 56.3586C111.205 49.8184 125.764 31.6416 121.489 16.4141C117.212 0.961876 88.9429 -4.13525 62.1929 4.48806C46.2917 9.61819 29.0469 17.6963 16.6438 28.2116C1.90814 40.7138 -0.424403 51.5818 0.529683 56.1344C3.95803 72.2914 28.5172 82.8067 38.3407 90.5967C37.8459 90.8532 37.3859 91.078 36.9979 91.2705C32.0858 93.4822 13.3572 102.362 8.69284 111.755C3.3927 122.398 9.54159 130.029 13.605 131.054C26.2203 134.228 39.1887 128.522 46.15 119.096C53.1113 109.671 52.2633 97.425 49.0479 91.815C49.0123 91.7511 48.9774 91.6864 48.9062 91.6225C50.1785 90.9494 51.4858 90.2441 52.7581 89.571C55.0966 88.3168 57.4648 87.1089 59.8611 85.9479C58.6592 88.9296 57.7756 92.4881 57.352 97.6175C56.8215 103.645 59.5421 111.466 63.1114 114.544C64.702 115.891 66.5746 115.923 67.7765 115.923C71.9459 115.923 73.8193 112.781 75.904 109.062C78.448 104.51 80.7449 99.2207 80.7449 99.2207C80.7449 99.2207 77.8826 113.519 85.657 113.519C88.4837 113.519 91.3459 110.184 92.6183 108.485V108.517C92.6183 108.517 92.6888 108.421 92.8305 108.197C93.1132 107.78 93.2897 107.523 93.2897 107.523V107.46C94.4204 105.664 96.9651 101.593 100.746 94.8283C105.622 86.1088 110.322 75.2091 110.322 75.2091C110.322 75.2091 110.747 77.8698 112.195 82.2938C113.044 84.8905 114.809 87.7436 116.223 90.5005C115.093 91.9436 114.386 92.7445 114.386 92.7445L114.421 92.7768C113.502 93.8665 112.513 95.0524 111.417 96.2074C107.565 100.374 102.972 105.152 102.336 106.53C101.593 108.164 101.77 109.351 103.184 110.313C104.209 111.018 106.046 111.114 107.919 111.018C111.383 110.793 113.82 110.024 115.022 109.544C116.895 108.934 119.086 108.004 121.135 106.626C124.916 104.093 127.212 100.471 127.001 95.6946C126.895 93.0656 125.941 90.4366 124.775 87.9678C125.128 87.5195 125.446 87.0706 125.8 86.6216C131.771 78.703 136.401 70.0151 136.401 70.0151C136.401 70.0151 136.825 72.6757 138.273 77.1004C138.981 79.3444 140.429 81.7809 141.701 84.1528C136.083 88.2888 132.619 93.0972 131.383 96.2391C129.157 102.074 130.888 104.702 134.174 105.311C135.658 105.6 137.779 104.959 139.334 104.35C141.312 103.773 143.645 102.779 145.871 101.304C149.653 98.7718 153.292 95.2449 153.08 90.4689C152.974 88.2888 152.338 86.1404 151.454 84.0566C156.225 82.2622 162.373 81.2681 170.218 82.1013C187.039 83.8964 190.36 93.4176 189.724 97.4257C189.088 101.432 185.554 103.613 184.389 104.286C183.222 104.959 182.834 105.183 182.94 105.664C183.081 106.369 183.646 106.338 184.636 106.209C186.014 105.985 193.47 102.971 193.788 95.5976C194.318 86.1727 184.424 75.8822 166.932 75.9784V75.9784ZM37.1745 115.666C31.5909 121.18 23.8173 123.264 20.4602 121.501C16.856 119.609 18.2693 111.467 25.1245 105.632C29.294 102.074 34.6653 98.7711 38.2346 96.7519C39.047 96.303 40.2489 95.6623 41.6978 94.8606C41.9449 94.7321 42.0866 94.6681 42.0866 94.6681L42.9346 94.1869C45.443 102.522 43.0407 109.864 37.1745 115.666V115.666ZM77.8122 90.5967C75.8684 94.8929 71.805 105.889 69.3315 105.28C67.2111 104.767 65.9031 96.4316 68.9071 88.1926C70.4265 84.0566 73.6419 79.1196 75.5152 77.1967C78.5541 74.1188 81.9112 73.0923 82.7236 74.3436C83.7489 75.9784 79.0133 87.9038 77.8122 90.5967V90.5967ZM111.347 105.151C110.534 105.536 109.757 105.793 109.403 105.6C109.156 105.472 109.757 104.959 109.757 104.959C109.757 104.959 113.962 100.856 115.622 98.9959C116.577 97.9063 117.707 96.6241 118.909 95.181V95.5976C118.909 100.503 113.679 103.805 111.346 105.151H111.347ZM137.213 99.7976C136.612 99.4126 136.718 98.1304 138.733 94.1229C139.51 92.552 141.347 89.9237 144.493 87.3909C144.846 88.4167 145.094 89.4108 145.058 90.3403C145.023 96.5278 140.147 98.8358 137.213 99.7976Z" fill="#CD6799"/>
</svg>
