<svg width="177" height="151" viewBox="0 0 177 151" fill="none" xmlns="http://www.w3.org/2000/svg">
<path d="M88.5 0C64.9002 0 50.1498 16.7345 44.25 50.2026C53.1 33.4681 63.4248 27.1927 75.225 31.3766C81.9572 33.7632 86.7694 40.6906 92.096 48.3573C100.773 60.8481 110.815 75.3039 132.75 75.3039C156.35 75.3039 171.1 58.5694 177 25.1013C168.15 41.8358 157.825 48.1112 146.025 43.9273C139.293 41.5407 134.481 34.6133 129.154 26.9466C120.477 14.4558 110.435 0 88.5 0ZM44.25 75.3039C20.6502 75.3039 5.89977 92.0384 0 125.507C8.85 108.772 19.1748 102.497 30.975 106.681C37.7072 109.067 42.5194 115.994 47.846 123.661C56.5231 136.152 66.5651 150.608 88.5 150.608C112.1 150.608 126.85 133.873 132.75 100.405C123.9 117.14 113.575 123.415 101.775 119.231C95.0428 116.845 90.2306 109.917 84.904 102.251C76.2269 89.7597 66.1849 75.3039 44.25 75.3039Z" fill="url(#paint0_linear_68_161)"/>
<defs>
<linearGradient id="paint0_linear_68_161" x1="-4.91706" y1="48.1945" x2="169.878" y2="119.261" gradientUnits="userSpaceOnUse">
<stop stop-color="#2298BD"/>
<stop offset="1" stop-color="#0ED7B5"/>
</linearGradient>
</defs>
</svg>
